<?xml version="1.0"?>
<svg width="25" height="25" xmlns="http://www.w3.org/2000/svg" xmlns:svg="http://www.w3.org/2000/svg">
 <g class="layer">
  <title>Layer 1</title>
  <path clip-rule="evenodd" d="m15.420849,24.804195c8.639929,-0.246746 9.490251,-2.044611 9.490251,-12.251285c0,-11.262274 -1.035714,-12.286116 -12.428573,-12.286116c-11.392827,0 -12.428542,1.023841 -12.428542,12.286116c0,10.233293 0.8555,12.013753 9.557541,12.253332c0.075607,-0.09317 0.103571,-0.209887 0.103571,-0.328653c0,-0.25596 -0.010357,-2.883137 -0.015536,-3.787189c-3.145434,0.654235 -3.809326,-1.452831 -3.809326,-1.452831c-0.51475,-1.251134 -1.256322,-1.584906 -1.256322,-1.584906c-1.026393,-0.67164 0.077679,-0.65833 0.077679,-0.65833c1.135143,0.076788 1.73275,1.117011 1.73275,1.117011c1.008786,1.655551 2.647286,1.177417 3.291469,0.899956c0.102536,-0.699284 0.394607,-1.177417 0.71775,-1.447712c-2.511576,-0.273366 -5.151612,-1.203013 -5.151612,-5.35469c0,-1.182537 0.441214,-2.149043 1.164143,-2.906706c-0.117036,-0.274389 -0.504393,-1.376043 0.110821,-2.866756c0,0 0.94975,-0.291795 3.110219,1.109844c0.902107,-0.240603 1.869464,-0.360392 2.831643,-0.364487c0.960107,0.004095 1.927464,0.123885 2.831643,0.364487c2.159464,-1.401639 3.107143,-1.109844 3.107143,-1.109844c0.617286,1.490713 0.228893,2.592366 0.111857,2.866756c0.725,0.757663 1.163107,1.724169 1.163107,2.906706c0,4.161915 -2.644179,5.078253 -5.164072,5.345475c0.406,0.334796 0.767464,0.996198 0.767464,2.006729c0,0.968554 -0.006214,2.68144 -0.010357,3.81688c-0.002071,0.562089 -0.003107,0.981864 -0.003107,1.099606c0,0.111599 0.030036,0.22934 0.098393,0.326605l0,0z" fill="#ffce78" fill-rule="evenodd" id="svg_1"/>
 </g>
</svg>