<?xml version="1.0"?>
<svg width="512" height="512" xmlns="http://www.w3.org/2000/svg" xmlns:svg="http://www.w3.org/2000/svg">
 <!--! Font Awesome Pro 6.3.0 by @fontawesome - https://fontawesome.com License - https://fontawesome.com/license (Commercial License) Copyright 2023 Fonticons, Inc. -->
 <g class="layer">
  <title>Layer 1</title>
  <path d="m136.302531,127.002854c65.828334,-70.667747 172.190835,-71.008588 238.442502,-1.136137l-43.603334,46.695247c-7.3025,7.839348 -9.419167,19.541563 -5.503333,29.7668s13.229167,16.814834 23.495,16.814834l126.470835,0c0,0 0,0 0,0l8.995833,0c14.075833,0 25.4,-12.15667 25.4,-27.267298l0,-145.425588c0,-11.020533 -6.138333,-21.018542 -15.663333,-25.22225s-20.425834,-1.931434 -27.728334,5.907915l-44.026667,47.263316c-92.710001,-98.275886 -242.040836,-97.935044 -334.22167,1.136137c-25.823334,27.721753 -44.45,60.328896 -55.880001,95.208315c-6.244167,18.973495 3.069167,39.651195 20.6375,46.354406s36.935834,-3.294798 43.18,-22.154679c8.149167,-24.767795 21.378334,-48.058612 40.005,-67.941017zm-134.302501,192.120835l0,8.634644l0,0.795296l0,135.995647c0,11.020533 6.138333,21.018542 15.663333,25.22225s20.425834,1.931434 27.728334,-5.907915l44.026667,-47.263316c92.710001,98.275886 242.040836,97.935044 334.22167,-1.136137c25.823334,-27.721753 44.555834,-60.328896 55.985834,-95.094701c6.244167,-18.973495 -3.069167,-39.651195 -20.6375,-46.354406s-36.935834,3.294798 -43.18,22.154679c-8.149167,24.767795 -21.378334,48.058612 -40.005,67.941017c-65.828334,70.667747 -172.190835,71.008588 -238.442502,1.136137l43.4975,-46.808861c7.3025,-7.839348 9.419167,-19.541563 5.503333,-29.7668s-13.229167,-16.814834 -23.495,-16.814834l-126.576668,0l-0.740833,0l-8.149167,0c-14.075833,0 -25.4,12.15667 -25.4,27.267298z" fill="#ff0000" id="svg_1"/>
 </g>
</svg>